<?xml version="1.0" encoding="UTF-8"?>
<svg version="1.1" xmlns="http://www.w3.org/2000/svg" width="500" height="493">
<path d="M0 0 C3.35570624 0.0227664 6.71014163 0.00922554 10.06580448 -0.01374912 C31.8023093 -0.14009509 52.5013024 1.87967602 73.28149414 8.45898438 C74.35206055 8.78060547 75.42262695 9.10222656 76.52563477 9.43359375 C103.2339538 17.6056624 129.98921218 30.2833931 152.09399414 47.52148438 C152.42399414 48.18148437 152.75399414 48.84148438 153.09399414 49.52148438 C153.79395508 49.9365625 154.49391602 50.35164063 155.21508789 50.77929688 C158.85506372 52.98205023 161.94236948 55.62204379 165.15649414 58.39648438 C165.7681543 58.91339844 166.37981445 59.4303125 167.01000977 59.96289062 C170.45519439 62.92016262 173.30061411 65.92220511 176.09399414 69.52148438 C177.31376052 70.63874938 178.56377633 71.72403344 179.84399414 72.77148438 C188.52665431 80.23664976 195.22392005 89.434883 202.09399414 98.52148438 C202.65086914 99.23175781 203.20774414 99.94203125 203.78149414 100.67382812 C209.62630809 108.18631996 214.40249046 116.48713945 219.08911133 124.75463867 C220.06938291 126.47821142 221.06780316 128.19142222 222.06665039 129.90429688 C235.82770191 154.1854055 248.0500364 186.51724258 248.27099609 214.77001953 C248.27756729 215.47028763 248.28413849 216.17055573 248.29090881 216.89204407 C248.31052894 219.19821314 248.32228864 221.50431692 248.33227539 223.81054688 C248.33635092 224.60752361 248.34042645 225.40450035 248.34462547 226.2256279 C248.36545369 230.456731 248.37976081 234.68780213 248.38916016 238.91894531 C248.39796007 242.3790887 248.41869448 245.83882262 248.45068359 249.29882812 C248.77421597 285.04299541 248.77421597 285.04299541 244.09399414 302.52148438 C243.52025108 305.22407892 242.99830692 307.93464611 242.46899414 310.64648438 C238.49536812 328.33424377 230.75310225 345.64853535 222.09399414 361.52148438 C221.73450684 362.19356934 221.37501953 362.8656543 221.00463867 363.55810547 C216.27824589 372.37728783 211.16711836 380.54899661 205.09399414 388.52148438 C203.77875952 390.35285688 202.46628949 392.18621777 201.15649414 394.02148438 C199.80841827 395.859301 198.4543631 397.69274854 197.09399414 399.52148438 C196.49973633 400.32457031 195.90547852 401.12765625 195.29321289 401.95507812 C183.60467008 416.96981949 169.38897478 430.26324266 154.09399414 441.52148438 C152.6539358 442.68499172 151.21618542 443.85136545 149.78149414 445.02148438 C145.58263349 448.27854451 141.16824139 451.1843983 136.71899414 454.08398438 C136.03538818 454.53128906 135.35178223 454.97859375 134.64746094 455.43945312 C124.6286281 461.88391689 114.07129605 467.13536331 103.21899414 472.02148438 C102.27305893 472.44818924 102.27305893 472.44818924 101.30801392 472.8835144 C90.88547472 477.55407938 80.44962343 481.27052659 69.34008789 483.96582031 C67.24264677 484.48470901 65.17002617 485.05624156 63.09399414 485.65429688 C34.82248533 493.47530853 3.92641851 494.12619897 -25.09350586 490.89648438 C-25.89350006 490.80945251 -26.69349426 490.72242065 -27.51773071 490.63275146 C-41.04623402 489.13490786 -53.9087773 486.63212522 -66.90600586 482.52148438 C-68.40956015 482.07628358 -69.91345623 481.63223513 -71.41772461 481.18945312 C-80.50454178 478.42165855 -89.20117171 474.80999456 -97.90600586 471.02148438 C-98.9448291 470.57071533 -99.98365234 470.11994629 -101.05395508 469.65551758 C-106.86171888 467.07071282 -112.33674722 464.22576857 -117.73144531 460.86035156 C-119.81491416 459.57756913 -121.92889052 458.41061286 -124.09350586 457.27148438 C-128.40369936 454.90087795 -132.4963432 452.23795661 -136.59350586 449.52148438 C-137.22345459 449.10608398 -137.85340332 448.69068359 -138.50244141 448.26269531 C-142.52782533 445.56602225 -146.22070335 442.66674255 -149.90600586 439.52148438 C-151.69743809 438.08369223 -153.48910062 436.64618697 -155.28100586 435.20898438 C-159.49050235 431.77627421 -163.3642895 428.18600046 -167.14038086 424.28710938 C-169.04952718 422.31874959 -169.04952718 422.31874959 -171.96850586 420.02148438 C-177.30668015 415.47835732 -181.54122104 409.97953598 -185.90600586 404.52148438 C-187.34320301 402.79206599 -188.78071477 401.06290901 -190.21850586 399.33398438 C-196.89200356 391.1726249 -202.61597477 382.629198 -207.90600586 373.52148438 C-208.51186523 372.50699219 -209.11772461 371.4925 -209.74194336 370.44726562 C-219.36937256 354.06541474 -226.37257411 337.30440094 -232.05957031 319.17700195 C-232.84732204 316.7055928 -233.68489294 314.25715813 -234.53491211 311.80664062 C-235.89214914 307.75664534 -236.73265038 303.79307774 -237.46850586 299.58398438 C-238.26625562 295.09128356 -239.07914792 290.60964049 -240.03100586 286.14648438 C-241.74936737 277.5666245 -242.0790632 268.9619326 -242.14428711 260.23242188 C-242.15235886 259.17149323 -242.1604306 258.11056458 -242.16874695 257.01748657 C-242.18250634 254.77697337 -242.19326446 252.53643993 -242.20117188 250.29589844 C-242.21260038 248.05462281 -242.23290387 245.81337238 -242.26269531 243.57226562 C-242.47597005 227.46347001 -241.10333473 212.31072497 -237.90600586 196.52148438 C-237.73168533 195.64609512 -237.55736481 194.77070587 -237.37776184 193.86878967 C-235.28936168 183.44281255 -232.52058649 173.53599896 -228.90600586 163.52148438 C-228.48834961 162.3071875 -228.07069336 161.09289062 -227.64038086 159.84179688 C-224.72435115 151.54150364 -221.18287555 143.590012 -217.40600586 135.64648438 C-216.95531738 134.69580078 -216.50462891 133.74511719 -216.0402832 132.765625 C-211.5565064 123.49063091 -206.286126 114.84547675 -200.40600586 106.39648438 C-199.92969727 105.70852783 -199.45338867 105.02057129 -198.96264648 104.31176758 C-190.35089836 91.92136531 -190.35089836 91.92136531 -185.90600586 87.52148438 C-184.83382759 86.32173046 -183.77202253 85.11265801 -182.71850586 83.89648438 C-182.10749023 83.19652344 -181.49647461 82.4965625 -180.86694336 81.77539062 C-179.5351977 80.24467898 -178.20719627 78.71070337 -176.88256836 77.17382812 C-173.11862731 72.85466972 -169.37451613 69.09629259 -164.90600586 65.52148438 C-163.73038086 64.34585938 -163.73038086 64.34585938 -162.53100586 63.14648438 C-146.51980877 47.13528729 -126.89606424 34.92447394 -106.90600586 24.52148438 C-106.25116211 24.16828125 -105.59631836 23.81507812 -104.92163086 23.45117188 C-99.87721009 20.80389321 -94.62452236 18.79683889 -89.29272461 16.80273438 C-87.17822868 16.00278666 -85.07414274 15.17403954 -82.98803711 14.30273438 C-76.13023841 11.47627045 -69.19147561 9.37235977 -62.03100586 7.45898438 C-61.17780762 7.22574463 -60.32460937 6.99250488 -59.44555664 6.75219727 C-56.27907681 5.93314282 -53.10216364 5.2167477 -49.90600586 4.52148438 C-49.15185394 4.35312073 -48.39770203 4.18475708 -47.62069702 4.0112915 C-31.74163845 0.55852508 -16.21645531 -0.11096072 0 0 Z " fill="#FF6D38" transform="translate(246.906005859375,0.478515625)"/>
<path d="M0 0 C0.60223389 0.62318115 1.20446777 1.2463623 1.82495117 1.88842773 C2.4855957 2.56196289 3.14624023 3.23549805 3.8269043 3.92944336 C4.83720703 4.99001953 4.83720703 4.99001953 5.86791992 6.07202148 C6.56079102 6.78293945 7.25366211 7.49385742 7.9675293 8.22631836 C9.67287162 9.97870461 11.36817168 11.73973617 13.05541992 13.50952148 C7.89959904 24.67778674 -8.06006276 32.7445132 -17.94458008 39.50952148 C-18.59894043 39.95859863 -19.25330078 40.40767578 -19.92749023 40.87036133 C-28.4511514 46.69867319 -37.15879032 52.14333107 -46.05200195 57.38745117 C-47.98652957 58.53439247 -49.91193314 59.69537712 -51.83520508 60.86108398 C-61.84141813 66.92407987 -71.98994843 72.56489541 -82.44458008 77.82202148 C-83.13994873 78.17208252 -83.83531738 78.52214355 -84.55175781 78.8828125 C-87.32398451 80.26432648 -90.00195918 81.52864785 -92.94458008 82.50952148 C-92.73961914 83.56010742 -92.5346582 84.61069336 -92.32348633 85.69311523 C-90.92427756 92.95275309 -89.60280272 100.1374279 -88.94458008 107.50952148 C-92.94458008 107.50952148 -92.94458008 107.50952148 -95.69360352 105.21459961 C-96.74070396 104.16686673 -97.77688053 103.10814274 -98.80395508 102.04077148 C-99.35319641 101.48587036 -99.90243774 100.93096924 -100.46832275 100.35925293 C-102.22001505 98.5851742 -103.95729068 96.79769584 -105.69458008 95.00952148 C-106.87985425 93.80418534 -108.06604173 92.59974656 -109.25317383 91.39624023 C-112.16100849 88.44430816 -115.05598929 85.48028225 -117.94458008 82.50952148 C-116.63759856 79.63629981 -115.23552016 77.53892785 -113.03364563 75.28405762 C-112.43834045 74.67010635 -111.84303528 74.05615509 -111.22969055 73.42359924 C-110.57784286 72.76166061 -109.92599518 72.09972198 -109.25439453 71.41772461 C-108.56618622 70.71155502 -107.87797791 70.00538544 -107.16891479 69.27781677 C-104.88827745 66.94244882 -102.59931876 64.61552187 -100.30786133 62.29077148 C-99.52304068 61.49405533 -98.73822002 60.69733917 -97.92961693 59.8764801 C-93.76947357 55.65703101 -89.60161544 51.44535188 -85.42871094 47.23852539 C-81.98868794 43.7674198 -78.56510423 40.28128265 -75.15527344 36.78051758 C-71.02782028 32.54307869 -66.87356791 28.3337254 -62.69914818 24.14256287 C-61.1194186 22.54763606 -59.54903556 20.94339091 -57.98870277 19.32948303 C-48.58203303 9.6181075 -41.61710379 3.32886038 -27.94458008 1.50952148 C-25.98072639 1.08933328 -24.01912094 0.6582369 -22.06176758 0.20874023 C-20.31546208 -0.13410062 -18.56807856 -0.47150335 -16.81958008 -0.80297852 C-15.4815332 -1.07464844 -15.4815332 -1.07464844 -14.11645508 -1.35180664 C-13.2527832 -1.51745117 -12.38911133 -1.6830957 -11.49926758 -1.85375977 C-10.7411377 -2.00111572 -9.98300781 -2.14847168 -9.2019043 -2.30029297 C-5.54614541 -2.60830034 -2.94803268 -2.2596032 0 0 Z " fill="#FFFDFD" transform="translate(247.944580078125,276.490478515625)"/>
<path d="M0 0 C5.20572372 0.02502752 8.48267174 1.72059992 12.9375 4.3125 C12.9375 5.3025 12.9375 6.2925 12.9375 7.3125 C11.9730748 7.78894958 11.0086496 8.26539917 10.01499939 8.75628662 C4.81643811 11.74132453 0.88153479 15.97384986 -3.30249023 20.21191406 C-4.20084091 21.10982666 -5.09919159 22.00773926 -6.02476501 22.93286133 C-8.47318231 25.38042225 -10.91227613 27.83708355 -13.34973407 30.29555225 C-15.90410551 32.86875049 -18.46704567 35.43338581 -21.02906799 37.9989624 C-25.87270381 42.85190111 -30.70864504 47.71243224 -35.54183203 52.57577491 C-41.0474179 58.1149596 -46.56158321 63.64556987 -52.07646644 69.17549562 C-63.41468134 80.54501973 -74.74213646 91.92520101 -86.0625 103.3125 C-87.1882744 102.35216763 -88.31339924 101.39107377 -89.43824768 100.42965698 C-90.06487084 99.89452925 -90.69149401 99.35940151 -91.33710575 98.80805779 C-93.1585176 97.22927272 -94.89425527 95.59588127 -96.58984375 93.8828125 C-97.43579102 93.03203125 -97.43579102 93.03203125 -98.29882812 92.1640625 C-98.86021484 91.59429687 -99.42160156 91.02453125 -100 90.4375 C-100.58845703 89.84453125 -101.17691406 89.2515625 -101.78320312 88.640625 C-103.21197674 87.20023534 -104.63758132 85.7567033 -106.0625 84.3125 C-101.24515487 78.47329379 -96.01028471 73.10653724 -90.64990234 67.76953125 C-89.1938326 66.31880935 -87.74317224 64.86283341 -86.29296875 63.40625 C-81.64300422 58.75296233 -76.93599897 54.22527047 -71.93945312 49.94433594 C-68.60979409 47.04950751 -65.44590254 43.97813921 -62.25 40.9375 C-56.06562618 35.10329295 -49.75117253 29.5672117 -43.0625 24.3125 C-41.94073456 23.41099141 -40.81967999 22.50859778 -39.69921875 21.60546875 C-19.7185614 5.57748274 -19.7185614 5.57748274 -7.36328125 2.00390625 C-0.77944565 0.02540217 -0.77944565 0.02540217 0 0 Z " fill="#FFFBFA" transform="translate(316.0625,148.6875)"/>
<path d="M0 0 C3.83019557 1.98602733 7.04532347 4.09064695 9 8 C9.70225714 11.39424285 9.94021939 12.78666197 9 16 C3.95330062 23.35680825 -3.30163642 29.18963552 -10 35 C-10.63292969 35.55945313 -11.26585937 36.11890625 -11.91796875 36.6953125 C-14.99383981 39.41047373 -18.10037836 42.08844518 -21.22265625 44.75 C-26.78122479 49.49079323 -32.30937974 54.24086217 -37.6875 59.1875 C-41.16136309 62.37736844 -44.69910025 65.42048894 -48.375 68.375 C-53.80891009 72.75944247 -58.89826018 77.45500063 -64 82.21484375 C-66.95607855 84.97096312 -69.97803951 87.64168744 -73.03515625 90.28515625 C-75.424322 92.37033272 -77.77367077 94.49727415 -80.125 96.625 C-83.6845614 99.83849293 -87.28439311 102.96884701 -91 106 C-94.34820898 104.53374144 -96.69266359 102.66341553 -99.3125 100.125 C-100.03050781 99.44695312 -100.74851563 98.76890625 -101.48828125 98.0703125 C-103 96 -103 96 -102.81707668 94.11616802 C-101.79521041 91.46961014 -100.44692735 90.07502226 -98.43849182 88.07099915 C-97.67431946 87.30125763 -96.91014709 86.53151611 -96.12281799 85.7384491 C-95.27863815 84.90348404 -94.43445831 84.06851898 -93.56469727 83.20825195 C-92.6801889 82.32169922 -91.79568054 81.43514648 -90.8843689 80.52172852 C-88.45798206 78.09284784 -86.02509311 75.67085168 -83.58892179 73.2518084 C-81.04232423 70.72024504 -78.5038313 68.18057983 -75.96434021 65.64189148 C-71.69957187 61.38081529 -67.42920687 57.12541629 -63.1550293 52.8737793 C-57.66525894 47.41290093 -52.18480043 41.94277551 -46.70723057 36.46966267 C-42.00136402 31.76777338 -37.2912427 27.07015302 -32.58043551 22.37321448 C-31.06444698 20.86132728 -29.54904717 19.34885187 -28.03372383 17.83629799 C-25.21385605 15.02222526 -22.38957069 12.21261271 -19.56469727 9.40356445 C-18.72254166 8.5625267 -17.88038605 7.72148895 -17.01271057 6.85496521 C-16.24571838 6.09368317 -15.4787262 5.33240112 -14.68849182 4.54804993 C-14.02056893 3.8831017 -13.35264605 3.21815348 -12.66448307 2.53305531 C-8.97260145 -0.86731494 -4.77945067 -0.58737357 0 0 Z " fill="#FFFCFB" transform="translate(337,161)"/>
<path d="M0 0 C-1.31101192 2.91087919 -2.69519644 4.92462983 -4.99682617 7.12866211 C-5.60052536 7.71284409 -6.20422455 8.29702606 -6.82621765 8.89891052 C-7.47524551 9.51879349 -8.12427338 10.13867645 -8.79296875 10.77734375 C-10.15877673 12.10813552 -11.52399355 13.43953421 -12.88867188 14.77148438 C-15.04207878 16.86282351 -17.1996908 18.9491721 -19.36791992 21.02514648 C-21.46057296 23.03334374 -23.53404261 25.05978977 -25.60546875 27.08984375 C-26.26056931 27.70770248 -26.91566986 28.32556122 -27.59062195 28.96214294 C-31.03172393 32.20904315 -31.03172393 32.20904315 -32.22021484 36.59130859 C-30.60966778 39.77051173 -28.42870684 42.02987459 -25.87109375 44.44921875 C-25.36199966 44.9479097 -24.85290558 45.44660065 -24.3283844 45.96040344 C-22.70733059 47.54594033 -21.07350512 49.11740657 -19.4375 50.6875 C-17.79977128 52.27002169 -16.16504505 53.85536954 -14.53590393 55.44673157 C-13.5230375 56.43504744 -12.50487346 57.41796804 -11.48106384 58.39494324 C-10.28287313 59.55890634 -9.13602846 60.7752917 -8 62 C-8 62.66 -8 63.32 -8 64 C-17.19456391 67.10223091 -28.58851625 67.80192027 -37.98828125 65.16015625 C-40.25489116 63.96444907 -42.05118937 62.66054906 -44 61 C-45.1446875 60.16275391 -45.1446875 60.16275391 -46.3125 59.30859375 C-54.41133628 52.92809609 -59.84823102 42.94184892 -61.3359375 32.68359375 C-61.52133855 22.02303311 -58.447311 11.77184978 -51 4 C-37.51805392 -9.34712662 -15.60608843 -11.90990959 0 0 Z " fill="#FFFCFB" transform="translate(390,100)"/>
<path d="M0 0 C-0.47496026 6.02062307 -1.75692964 10.42872639 -4.5625 15.75 C-5.09822632 16.78870239 -5.09822632 16.78870239 -5.64477539 17.84838867 C-11.24646682 28.50008049 -18.22542957 37.84765759 -26 47 C-26.92758386 48.11416682 -27.85464486 49.22876909 -28.78125 50.34375 C-34.43862596 57.09928926 -40.31047127 63.51155734 -46.63574219 69.64990234 C-49.6780372 72.61082698 -52.36480375 75.67760817 -55 79 C-57 80.66666667 -59 82.33333333 -61 84 C-61.928125 85.175625 -61.928125 85.175625 -62.875 86.375 C-65.3109892 89.38416313 -68.02758585 91.72082074 -70.9765625 94.21484375 C-72.87057105 95.88581268 -74.54765247 97.63778735 -76.25 99.5 C-77.1575 100.325 -78.065 101.15 -79 102 C-82.43343484 101.74330661 -84.11168257 100.24632625 -86.453125 97.83984375 C-87.071875 97.21142578 -87.690625 96.58300781 -88.328125 95.93554688 C-88.96234375 95.27619141 -89.5965625 94.61683594 -90.25 93.9375 C-90.8996875 93.27427734 -91.549375 92.61105469 -92.21875 91.92773438 C-93.8194676 90.29170683 -95.41276193 88.64909088 -97 87 C-95.12939314 82.89364294 -92.37667777 80.29145059 -89.0625 77.3125 C-88.18851562 76.51585937 -88.18851562 76.51585937 -87.296875 75.703125 C-82.93229281 71.75693413 -78.41214337 68.0352976 -73.82421875 64.3515625 C-69.38967742 60.65917816 -65.20412576 56.7070928 -60.984375 52.7734375 C-56.37851774 48.48018201 -51.6189993 44.37670578 -46.82421875 40.296875 C-45.63254314 39.28156606 -44.4411459 38.26593033 -43.25 37.25 C-42.64639648 36.73526123 -42.04279297 36.22052246 -41.42089844 35.69018555 C-37.47533924 32.30910436 -33.61893619 28.84901163 -29.8125 25.3125 C-25.30085209 21.12162759 -20.62063183 17.20330632 -15.8203125 13.34765625 C-12.01888405 10.1833093 -8.3991286 6.83902996 -4.79492188 3.453125 C-1.09938552 0 -1.09938552 0 0 0 Z " fill="#FFFBFA" transform="translate(346,185)"/>
<path d="M0 0 C4.19345426 1.83669516 5.22734154 3.78035159 7.1875 7.9375 C7.69667969 8.99839844 8.20585937 10.05929688 8.73046875 11.15234375 C12.03974334 18.57530121 12.06957372 27.26505571 9.75390625 35.0703125 C6.98264024 42.16360478 2.55574313 50.9803755 -4.6875 54.19140625 C-5.450625 54.45824219 -6.21375 54.72507813 -7 55 C-10.33333333 51.66666667 -13.66666667 48.33333333 -17 45 C-17.86882812 44.14277344 -18.73765625 43.28554687 -19.6328125 42.40234375 C-22.13674589 39.86122323 -24.40195515 37.20343174 -26.66796875 34.453125 C-27.9579691 32.87220817 -27.9579691 32.87220817 -30 32 C-28.71977125 29.19030533 -27.39285871 27.1460762 -25.20263672 24.97558594 C-24.64220673 24.41530701 -24.08177673 23.85502808 -23.50436401 23.277771 C-22.90222076 22.68595032 -22.30007751 22.09412964 -21.6796875 21.484375 C-21.06102814 20.86854553 -20.44236877 20.25271606 -19.80496216 19.6182251 C-17.83296186 17.65739664 -15.85411263 15.70364699 -13.875 13.75 C-12.53469836 12.41973201 -11.19484917 11.089008 -9.85546875 9.7578125 C-6.57553411 6.4998985 -3.28944058 3.24831467 0 0 Z " fill="#FFF9F7" transform="translate(393,105)"/>
<path d="M0 0 C3.63879675 1.53652003 5.98214646 3.72420759 8.765625 6.5 C10.09980469 7.8303125 10.09980469 7.8303125 11.4609375 9.1875 C12.84152344 10.5796875 12.84152344 10.5796875 14.25 12 C15.18585938 12.928125 16.12171875 13.85625 17.0859375 14.8125 C17.97023437 15.699375 18.85453125 16.58625 19.765625 17.5 C20.57805664 18.3146875 21.39048828 19.129375 22.22753906 19.96875 C24 22 24 22 24 24 C-11.19170984 24.26943005 -11.19170984 24.26943005 -18 22 C-17.49711405 17.69753135 -16.26926751 15.78721514 -13.18359375 12.79296875 C-12.41982422 12.04208984 -11.65605469 11.29121094 -10.86914062 10.51757812 C-9.66547852 9.36418945 -9.66547852 9.36418945 -8.4375 8.1875 C-7.63119141 7.39923828 -6.82488281 6.61097656 -5.99414062 5.79882812 C-4.00479831 3.85657084 -2.00672729 1.92426339 0 0 Z " fill="#FFFCFB" transform="translate(125,362)"/>
<path d="M0 0 C3.1195572 1.38685223 5.25855799 3.00189491 7.671875 5.40625 C8.66767578 6.39818359 8.66767578 6.39818359 9.68359375 7.41015625 C10.36550781 8.09980469 11.04742187 8.78945312 11.75 9.5 C12.44738281 10.18964844 13.14476562 10.87929687 13.86328125 11.58984375 C14.52199219 12.25113281 15.18070313 12.91242188 15.859375 13.59375 C16.46233398 14.19896484 17.06529297 14.80417969 17.68652344 15.42773438 C19 17 19 17 19 19 C17.98164063 19.17015625 16.96328125 19.3403125 15.9140625 19.515625 C7.2576541 20.99004548 -1.31216241 22.64642903 -9.84521484 24.72949219 C-14.35204674 25.78882999 -18.36889695 26.17624933 -23 26 C-21.46728453 22.34968275 -19.27846123 20.06060249 -16.46484375 17.3046875 C-15.57345703 16.42425781 -14.68207031 15.54382813 -13.76367188 14.63671875 C-12.83103516 13.72535156 -11.89839844 12.81398437 -10.9375 11.875 C-9.09027833 10.06210385 -7.24511579 8.24710642 -5.40234375 6.4296875 C-4.17245728 5.22675049 -4.17245728 5.22675049 -2.91772461 3.99951172 C-0.9485366 2.14403639 -0.9485366 2.14403639 0 0 Z " fill="#FFFAF8" transform="translate(205,236)"/>
<path d="M0 0 C2.24136621 3.36204931 3.78155086 6.86915664 5.375 10.5625 C5.68735596 11.27978271 5.99971191 11.99706543 6.3215332 12.73608398 C8.0178826 16.65165131 9.64599778 20.58284485 11.1875 24.5625 C12.30282951 27.41278653 13.51523122 30.04667283 15.0625 32.6875 C17 36 17 36 18.3125 39.25 C20.07097297 43.5399011 22.64473522 47.29400436 25.18359375 51.15625 C26.49828356 53.21451706 27.73827708 55.3211274 28.9296875 57.453125 C32.30116565 63.41224307 36.75329986 68.64999051 41 74 C41.74765625 74.94488281 42.4953125 75.88976562 43.265625 76.86328125 C53.47551295 89.55218875 64.50578982 101.93685056 77.38671875 111.953125 C80.20510493 114.1606502 82.9425979 116.45194243 85.6875 118.75 C88.7100824 121.2417039 91.61958223 123.50353847 95.0625 125.375 C98 127 98 127 100 130 C96.24831052 128.64671201 93.23963476 126.94336362 90 124.625 C89.175 124.03976562 88.35 123.45453125 87.5 122.8515625 C84.94672408 120.96054252 82.4697019 118.99873549 80 117 C79.13761719 116.31421875 78.27523437 115.6284375 77.38671875 114.921875 C72.22585706 110.76928586 67.3736793 106.52353472 62.765625 101.765625 C60.85647868 99.79726522 60.85647868 99.79726522 57.9375 97.5 C52.59932571 92.95687294 48.36478482 87.45805161 44 82 C42.56280285 80.27058161 41.12529109 78.54142463 39.6875 76.8125 C33.0140023 68.65114052 27.29003109 60.10771362 22 51 C21.39414062 49.98550781 20.78828125 48.97101563 20.1640625 47.92578125 C0 13.61499506 0 13.61499506 0 0 Z " fill="#FFE6DC" transform="translate(17,323)"/>
<path d="M0 0 C0.99 0.495 0.99 0.495 2 1 C-24 27 -50 53 -76 79 C-76 75 -76 75 -74.8499012 73.35491657 C-74.30679739 72.81420112 -73.76369358 72.27348566 -73.20413208 71.71638489 C-72.584375 71.08968399 -71.96461792 70.46298309 -71.32608032 69.81729126 C-70.29286148 68.80328751 -70.29286148 68.80328751 -69.23876953 67.76879883 C-68.16094208 66.68768578 -68.16094208 66.68768578 -67.06134033 65.58473206 C-64.67801099 63.19908667 -62.2806857 60.82805074 -59.8828125 58.45703125 C-58.22770642 56.80684656 -56.57340939 55.15585004 -54.91989136 53.5040741 C-51.45046368 50.0422947 -47.97466933 46.58708786 -44.49365234 43.13696289 C-40.02367126 38.70657249 -35.56454281 34.26546353 -31.10946846 29.82008839 C-26.87077763 25.59135654 -22.62713059 21.36761395 -18.3828125 17.14453125 C-17.56875065 16.33386515 -16.7546888 15.52319904 -15.9159584 14.6879673 C-13.62002168 12.40356751 -11.32063913 10.12269999 -9.02001953 7.84301758 C-8.33525543 7.16094238 -7.65049133 6.47886719 -6.94497681 5.77612305 C-6.31958008 5.15788162 -5.69418335 4.5396402 -5.04983521 3.90266418 C-4.50597734 3.36307981 -3.96211948 2.82349543 -3.40178108 2.26756001 C-2 1 -2 1 0 0 Z " fill="#FFE3D9" transform="translate(207,281)"/>
<path d="M0 0 C3.21524305 1.40844718 5.32183868 3.10344786 7.75 5.625 C8.67039063 6.57246094 8.67039063 6.57246094 9.609375 7.5390625 C10.06828125 8.02117187 10.5271875 8.50328125 11 9 C7.73238821 11.84521319 4.82977373 12.76127362 0.625 13.6875 C-0.47585937 13.93886719 -1.57671875 14.19023437 -2.7109375 14.44921875 C-5.87956394 14.97983197 -8.79487199 15.10167325 -12 15 C-11.58685438 10.55073948 -8.49538473 8.15899896 -5.4375 5.25 C-4.91736328 4.74339844 -4.39722656 4.23679687 -3.86132812 3.71484375 C-2.58089916 2.46965595 -1.29132446 1.23388498 0 0 Z " fill="#FFF9F7" transform="translate(228,259)"/>
<path d="M0 0 C3.53571429 0.53571429 3.53571429 0.53571429 5 2 C5.07244053 4.01964199 5.08377188 6.04167124 5.0625 8.0625 C5.05347656 9.16722656 5.04445313 10.27195313 5.03515625 11.41015625 C5.02355469 12.26480469 5.01195312 13.11945313 5 14 C4.34 14 3.68 14 3 14 C2.67 15.32 2.34 16.64 2 18 C0.35 17.67 -1.3 17.34 -3 17 C-2.855625 16.29875 -2.71125 15.5975 -2.5625 14.875 C-2.376875 13.92625 -2.19125 12.9775 -2 12 C-1.79375 10.989375 -1.5875 9.97875 -1.375 8.9375 C-0.83134651 6.0953908 -0.83134651 6.0953908 -1.5625 3.75 C-1.706875 3.1725 -1.85125 2.595 -2 2 C-1.34 1.34 -0.68 0.68 0 0 Z " fill="#FF794A" transform="translate(391,123)"/>
<path d="M0 0 C2.24136621 3.36204931 3.78155086 6.86915664 5.375 10.5625 C5.68735596 11.27978271 5.99971191 11.99706543 6.3215332 12.73608398 C8.0178826 16.65165131 9.64599778 20.58284485 11.1875 24.5625 C12.30282951 27.41278653 13.51523122 30.04667283 15.0625 32.6875 C16.65977681 35.4183281 17.82652922 38.04468263 19.00390625 40.96484375 C20.85347001 44.74375637 23.31300518 48.16855438 25.671875 51.64453125 C26.32929687 52.81048828 26.32929687 52.81048828 27 54 C26.67 54.66 26.34 55.32 26 56 C22.76964275 53.23692713 20.90979021 49.66351092 18.875 46 C18.48538086 45.30084473 18.09576172 44.60168945 17.69433594 43.88134766 C-0 11.66403431 -0 11.66403431 0 0 Z " fill="#FFE3D9" transform="translate(17,323)"/>
<path d="M0 0 C-1.4264578 3.2586636 -3.16704162 5.4024854 -5.6953125 7.890625 C-6.76845703 8.95410156 -6.76845703 8.95410156 -7.86328125 10.0390625 C-8.60964844 10.76867187 -9.35601562 11.49828125 -10.125 12.25 C-10.87910156 12.99507813 -11.63320312 13.74015625 -12.41015625 14.5078125 C-14.26900772 16.3431342 -16.13237005 18.1736191 -18 20 C-17.38479492 20.0501123 -16.76958984 20.10022461 -16.13574219 20.15185547 C-13.33971386 20.38441837 -10.54492737 20.62957387 -7.75 20.875 C-6.78191406 20.95363281 -5.81382813 21.03226562 -4.81640625 21.11328125 C-3.88183594 21.19707031 -2.94726562 21.28085937 -1.984375 21.3671875 C-1.12553711 21.44050293 -0.26669922 21.51381836 0.61816406 21.58935547 C3.07709617 22.0132919 4.84159153 22.77224134 7 24 C-12.77006508 24.40997831 -12.77006508 24.40997831 -20 22 C-19.49282123 17.73252614 -18.28986836 15.79299398 -15.25390625 12.79296875 C-14.49916016 12.04208984 -13.74441406 11.29121094 -12.96679688 10.51757812 C-12.17337891 9.74865234 -11.37996094 8.97972656 -10.5625 8.1875 C-9.77294922 7.39923828 -8.98339844 6.61097656 -8.16992188 5.79882812 C-2.2807224 0 -2.2807224 0 0 0 Z " fill="#FFD6C8" transform="translate(127,362)"/>
<path d="M0 0 C5.58444325 8.37666487 7.18929165 19.42074588 9.25 29.125 C9.518125 30.32253906 9.78625 31.52007812 10.0625 32.75390625 C11.53347013 39.60592526 12.3986871 45.99075862 12 53 C11.67 53 11.34 53 11 53 C11 51.02 11 49.04 11 47 C10.34 47 9.68 47 9 47 C8.89042969 45.98421875 8.78085937 44.9684375 8.66796875 43.921875 C7.80520786 36.31288058 6.72193562 29.0292627 4.5859375 21.6484375 C3.93346217 18.69924901 3.90286345 16.01123313 4 13 C3.34 13 2.68 13 2 13 C1.66127487 11.58461283 1.32925376 10.16762037 1 8.75 C0.814375 7.96109375 0.62875 7.1721875 0.4375 6.359375 C0 4 0 4 0 0 Z " fill="#FFD7C8" transform="translate(483,165)"/>
<path d="M0 0 C3.88395124 0.54862988 5.49926619 2.23814057 8.125 5.0625 C11.9871567 9.05718168 16.00424491 12.54529153 20.38671875 15.953125 C23.20510493 18.1606502 25.9425979 20.45194243 28.6875 22.75 C31.7100824 25.2417039 34.61958223 27.50353847 38.0625 29.375 C41 31 41 31 43 34 C39.24831052 32.64671201 36.23963476 30.94336362 33 28.625 C32.175 28.03976562 31.35 27.45453125 30.5 26.8515625 C27.94672408 24.96054252 25.4697019 22.99873549 23 21 C22.13761719 20.31421875 21.27523437 19.6284375 20.38671875 18.921875 C14.56918811 14.24090968 9.17257312 9.37993685 4 4 C2.6690079 2.66432954 1.33626695 1.33039325 0 0 Z " fill="#FFF1EC" transform="translate(74,419)"/>
<path d="M0 0 C-10.61021574 6.13895636 -21.33332115 11.81846474 -32.5625 16.75 C-33.55515869 17.1919873 -34.54781738 17.63397461 -35.57055664 18.08935547 C-36.49731201 18.48783691 -37.42406738 18.88631836 -38.37890625 19.296875 C-39.1994751 19.65104492 -40.02004395 20.00521484 -40.86547852 20.37011719 C-43 21 -43 21 -46 20 C-45.14619751 19.62246582 -45.14619751 19.62246582 -44.27514648 19.23730469 C-41.66087622 18.07871065 -39.04918882 16.91440074 -36.4375 15.75 C-35.54224609 15.35425781 -34.64699219 14.95851563 -33.72460938 14.55078125 C-28.63388035 12.27580344 -23.80862254 9.81884769 -19 7 C-17.88625 6.525625 -16.7725 6.05125 -15.625 5.5625 C-11.87551669 3.9463434 -8.49801063 2.00927919 -5.015625 -0.109375 C-3 -1 -3 -1 0 0 Z " fill="#FFDED2" transform="translate(378,458)"/>
<path d="M0 0 C11.98625007 0.26212475 23.54704606 2.96611803 35.23022461 5.44335938 C38.14439237 6.02901847 41.06572044 6.52640647 44 7 C44 7.33 44 7.66 44 8 C28.82827216 7.25991572 14.6178369 5.16497151 0 1 C0 0.67 0 0.34 0 0 Z " fill="#FFC2AC" transform="translate(184,483)"/>
<path d="M0 0 C-25.53748238 8.29394485 -25.53748238 8.29394485 -34 8 C-34 7.34 -34 6.68 -34 6 C-26.91076336 4.11456472 -19.88272873 2.59339033 -12.6328125 1.4765625 C-9.81614447 1.03355903 -9.81614447 1.03355903 -6.5 -0.1875 C-3.7333449 -1.08666291 -2.70742307 -0.80878528 0 0 Z " fill="#FFCFBD" transform="translate(327,481)"/>
<path d="M0 0 C0.99 0.33 1.98 0.66 3 1 C-1 5 -5 9 -9 13 C-6.69 13 -4.38 13 -2 13 C-5.4019487 15.09350689 -8.05272412 15.17942163 -12 15 C-11.58685438 10.55073948 -8.49538473 8.15899896 -5.4375 5.25 C-4.91736328 4.74339844 -4.39722656 4.23679687 -3.86132812 3.71484375 C-2.58089916 2.46965595 -1.29132446 1.23388498 0 0 Z " fill="#FFDED2" transform="translate(228,259)"/>
<path d="M0 0 C2 2 2 2 2.1953125 3.9453125 C2.13020833 5.96354167 2.06510417 7.98177083 2 10 C2.66 10 3.32 10 4 10 C6.10575375 15.52760359 7.37851209 20.06997733 7 26 C1.85082039 18.27623059 0.35924745 9.12488534 0 0 Z " fill="#FFBDA6" transform="translate(10,297)"/>
<path d="M0 0 C0.33 0 0.66 0 1 0 C2.98718981 8.7649265 4.50803456 16.94945834 4 26 C3.67 26 3.34 26 3 26 C0.86968908 17.39602581 0.41559987 8.8150919 0 0 Z " fill="#FFC3AE" transform="translate(5,266)"/>
<path d="M0 0 C2.34710724 3.52066086 3.97500785 7.14260285 5.6875 11 C6.02072266 11.72445313 6.35394531 12.44890625 6.69726562 13.1953125 C9.11709166 18.64872502 9.11709166 18.64872502 8 22 C8 21.34 8 20.68 8 20 C7.34 20 6.68 20 6 20 C4.99183944 17.41958904 3.9932889 14.83613056 3 12.25 C2.71382812 11.52039063 2.42765625 10.79078125 2.1328125 10.0390625 C1.86210937 9.33007812 1.59140625 8.62109375 1.3125 7.890625 C1.06113281 7.24125977 0.80976563 6.59189453 0.55078125 5.92285156 C0 4 0 4 0 0 Z " fill="#FFCCBB" transform="translate(17,323)"/>
<path d="M0 0 C6.30596952 1.10938353 11.37529486 2.93197901 17 6 C13.88336506 7.55831747 11.741138 6.1647456 8.5 5.125 C6.75203125 4.57199219 6.75203125 4.57199219 4.96875 4.0078125 C2 3 2 3 0 2 C0 1.34 0 0.68 0 0 Z " fill="#FFB8A0" transform="translate(330,13)"/>
<path d="M0 0 C7.43296154 1.8851714 12.93425142 5.37787425 19 10 C18.01 10.495 18.01 10.495 17 11 C14.4206469 9.8286424 11.98065179 8.60392584 9.5 7.25 C8.81035156 6.8890625 8.12070313 6.528125 7.41015625 6.15625 C4.07927845 4.36419878 2.12998211 3.19497316 0 0 Z " fill="#FFE6DD" transform="translate(117,453)"/>
<path d="M0 0 C1.69458607 1.64474531 3.35614246 3.30530151 5 5 C5.56203125 5.5775 6.1240625 6.155 6.703125 6.75 C7.25484375 7.348125 7.8065625 7.94625 8.375 8.5625 C8.89835937 9.12066406 9.42171875 9.67882812 9.9609375 10.25390625 C11 12 11 12 10.6640625 14.21484375 C10.44492187 14.80394531 10.22578125 15.39304687 10 16 C9.52949219 15.32453125 9.05898438 14.6490625 8.57421875 13.953125 C7.95160156 13.06109375 7.32898437 12.1690625 6.6875 11.25 C6.07261719 10.36828125 5.45773438 9.4865625 4.82421875 8.578125 C3.6771203 6.95695803 2.49625243 5.35865998 1.26953125 3.796875 C0 2 0 2 0 0 Z " fill="#FFEDE6" transform="translate(42,378)"/>
<path d="M0 0 C0 0.66 0 1.32 0 2 C-1.828125 3.54296875 -1.828125 3.54296875 -4.25 5.1875 C-5.43335937 6.01314453 -5.43335937 6.01314453 -6.640625 6.85546875 C-9 8 -9 8 -11.296875 7.67578125 C-11.85890625 7.45277344 -12.4209375 7.22976562 -13 7 C-11.21190303 5.82786955 -9.41940875 4.66244474 -7.625 3.5 C-6.62726563 2.8503125 -5.62953125 2.200625 -4.6015625 1.53125 C-2 0 -2 0 0 0 Z " fill="#FFB59C" transform="translate(131,31)"/>
<path d="M0 0 C5.63281599 -0.2396943 10.54538831 0.61470179 16 2 C16 2.33 16 2.66 16 3 C10.55306686 3.09688221 5.36095333 3.12862175 0 2 C0 1.34 0 0.68 0 0 Z " fill="#FFA98D" transform="translate(283,2)"/>
<path d="M0 0 C4.29 0.33 8.58 0.66 13 1 C13 1.66 13 2.32 13 3 C13.66 3.33 14.32 3.66 15 4 C9.86496656 3.35812082 5.0056546 2.31727753 0 1 C0 0.67 0 0.34 0 0 Z " fill="#FFC9B6" transform="translate(184,483)"/>
<path d="M0 0 C0.33 1.32 0.66 2.64 1 4 C0.01 4.33 -0.98 4.66 -2 5 C-3.22520264 8.00847418 -3.22520264 8.00847418 -4 11 C-4.66 11 -5.32 11 -6 11 C-4.74194623 6.49197399 -3.09592835 3.5087188 0 0 Z " fill="#FFB8A3" transform="translate(46,108)"/>
<path d="M0 0 C0.33 1.32 0.66 2.64 1 4 C1.66 4 2.32 4 3 4 C3 7.3 3 10.6 3 14 C2.67 14 2.34 14 2 14 C2 12.02 2 10.04 2 8 C1.34 8 0.68 8 0 8 C0 5.36 0 2.72 0 0 Z " fill="#FFB89E" transform="translate(492,204)"/>
<path d="M0 0 C0.33 0.99 0.66 1.98 1 3 C-1.31 5.31 -3.62 7.62 -6 10 C-6.66 9.67 -7.32 9.34 -8 9 C-5.36 6.03 -2.72 3.06 0 0 Z " fill="#FF9974" transform="translate(82,66)"/>
<path d="M0 0 C0.66 0.33 1.32 0.66 2 1 C-0.83430453 4.2542015 -2.68607774 5.5206753 -7 6 C-5.01180815 3.01771223 -3.42353587 1.21480305 0 0 Z " fill="#FFC6B1" transform="translate(116,39)"/>
<path d="M0 0 C-3.85756507 2.15305957 -6.55129785 3.39253254 -11 3 C-7.18178484 -0.02823961 -4.81391924 -1.49397494 0 0 Z " fill="#FFB395" transform="translate(178,12)"/>
</svg>
